<?xml version="1.0" standalone="no"?>
<!DOCTYPE svg PUBLIC "-//W3C//DTD SVG 20010904//EN"
 "http://www.w3.org/TR/2001/REC-SVG-20010904/DTD/svg10.dtd">
<svg version="1.0" xmlns="http://www.w3.org/2000/svg"
 width="1118.000000pt" height="797.000000pt" viewBox="0 0 1118.000000 797.000000"
 preserveAspectRatio="xMidYMid meet">
<metadata>
Created by potrace 1.16, written by Peter Selinger 2001-2019
</metadata>
<g transform="translate(0.000000,797.000000) scale(0.100000,-0.100000)"
fill="#000000" stroke="none">
<path d="M1973 7421 c-171 -59 -263 -260 -224 -486 35 -198 154 -305 340 -305
67 0 86 4 140 31 44 22 73 45 96 78 31 42 65 118 65 146 0 6 -23 16 -51 21
-49 11 -51 10 -60 -15 -35 -92 -72 -133 -137 -151 -106 -29 -203 17 -250 119
-34 74 -43 219 -18 305 19 65 73 132 123 153 52 21 144 17 184 -10 28 -18 75
-89 91 -139 6 -18 108 12 108 31 0 37 -59 139 -101 174 -76 65 -200 85 -306
48z"/>
<path d="M4945 7427 c-68 -23 -101 -44 -148 -97 -63 -70 -88 -141 -95 -263 -8
-163 31 -282 120 -362 60 -54 121 -75 212 -75 78 0 132 20 179 63 l27 26 0
-39 0 -40 55 0 55 0 0 195 0 195 -145 0 -145 0 0 -50 0 -50 85 0 c84 0 85 0
85 -25 0 -31 -25 -93 -48 -119 -24 -27 -91 -56 -132 -56 -64 0 -113 20 -156
65 -58 59 -78 125 -78 246 0 89 3 102 33 163 46 95 88 121 192 121 62 0 83 -4
106 -21 23 -17 71 -92 85 -136 3 -8 19 -7 57 2 58 14 59 16 27 91 -46 110
-131 169 -254 175 -48 2 -92 -1 -117 -9z"/>
<path d="M6605 7427 c-127 -42 -207 -139 -235 -285 -37 -188 26 -386 148 -463
64 -41 114 -52 207 -47 95 5 143 27 202 90 33 37 83 136 83 166 0 5 -23 13
-51 18 l-50 11 -29 -63 c-20 -45 -39 -70 -67 -88 -112 -74 -264 -22 -311 107
-63 169 -16 374 98 435 58 31 163 28 207 -4 24 -18 71 -92 84 -133 4 -10 15
-10 52 0 26 6 50 15 52 19 8 13 -27 94 -61 142 -45 64 -116 99 -212 104 -48 2
-92 -1 -117 -9z"/>
<path d="M2527 7423 c-4 -3 -7 -181 -7 -395 l0 -388 60 0 60 0 0 180 0 180
184 0 c158 0 185 -2 190 -16 3 -9 6 -90 6 -180 l0 -164 55 0 55 0 0 395 0 395
-55 0 -55 0 0 -160 0 -160 -190 0 -190 0 0 160 0 160 -53 0 c-30 0 -57 -3 -60
-7z"/>
<path d="M3511 7408 c-44 -121 -271 -757 -271 -762 0 -3 24 -6 54 -6 l54 0 16
43 c9 23 26 71 38 107 l23 65 146 3 147 3 38 -111 39 -110 57 0 c32 0 58 3 58
8 0 4 -62 180 -138 392 l-139 385 -56 3 c-52 3 -58 1 -66 -20z m119 -297 c27
-78 50 -144 50 -147 0 -2 -47 -4 -105 -4 -77 0 -105 3 -105 13 0 6 18 62 39
122 54 151 61 168 66 163 3 -2 27 -69 55 -147z"/>
<path d="M4028 7424 c-5 -4 -8 -182 -8 -396 l0 -388 55 0 55 0 2 163 3 162 80
0 79 0 91 -162 90 -162 63 -1 c34 0 62 2 62 5 0 3 -40 76 -90 164 -49 87 -90
163 -90 167 1 5 23 19 51 32 61 29 96 74 108 139 18 90 -11 181 -68 222 -62
45 -108 53 -296 58 -99 3 -183 2 -187 -3z m356 -115 c59 -16 86 -49 86 -104 0
-105 -42 -129 -220 -130 l-115 0 -3 109 c-1 61 0 116 2 123 7 16 192 18 250 2z"/>
<path d="M5510 7035 l0 -395 261 0 260 0 -3 53 -3 52 -202 3 -203 2 0 125 0
125 145 0 145 0 0 50 0 49 -142 3 -143 3 -3 108 -3 107 191 0 190 0 0 55 0 55
-245 0 -245 0 0 -395z"/>
<path d="M7349 7403 c-34 -89 -269 -748 -269 -755 0 -4 24 -8 54 -8 l54 0 37
110 37 110 148 0 148 0 37 -110 38 -110 59 0 c32 0 58 2 58 4 0 4 -256 720
-271 759 -11 25 -16 27 -65 27 -50 0 -55 -2 -65 -27z m116 -280 c26 -76 50
-144 52 -150 4 -10 -21 -13 -107 -13 -61 0 -110 4 -108 8 2 5 25 72 52 150 28
78 53 142 57 142 3 0 28 -62 54 -137z"/>
<path d="M7860 7036 l0 -396 55 0 55 0 2 163 3 162 79 0 79 0 91 -162 91 -163
63 0 c62 0 63 0 51 23 -6 12 -47 85 -90 163 -44 77 -79 144 -79 150 0 5 23 19
50 32 71 33 103 84 108 172 5 84 -8 127 -54 173 -58 58 -103 68 -316 74 l-188
6 0 -397z m393 264 c60 -29 77 -125 32 -179 -33 -38 -100 -53 -221 -49 l-89 3
-3 124 -3 123 128 -4 c81 -3 138 -9 156 -18z"/>
<path d="M8577 7423 c-4 -3 -7 -181 -7 -395 l0 -388 143 0 c145 0 238 14 299
46 56 29 115 93 144 157 27 58 29 70 29 192 0 127 -1 132 -33 197 -72 146
-190 197 -458 198 -61 0 -114 -3 -117 -7z m363 -130 c56 -25 105 -79 122 -135
16 -56 16 -202 -1 -253 -19 -57 -56 -102 -104 -127 -34 -18 -63 -23 -154 -26
l-113 -4 0 287 0 288 103 -5 c72 -3 115 -10 147 -25z"/>
<path d="M11060 6166 c-60 -31 -345 -144 -495 -196 -917 -316 -2347 -594
-3650 -710 -664 -58 -1057 -75 -1800 -75 -766 0 -1109 16 -1700 81 -1244 135
-2447 420 -3257 770 -81 35 -150 64 -153 64 -3 0 -4 -1117 -3 -2482 l3 -2483
23 -42 c34 -64 80 -111 136 -141 l51 -27 5345 0 5345 0 42 23 c66 35 110 79
140 140 l28 57 3 2523 c1 1387 -1 2522 -5 2522 -5 -1 -28 -11 -53 -24z m-5386
-2263 c39 -20 87 -47 106 -58 19 -12 116 -64 215 -115 99 -51 203 -105 230
-120 141 -77 428 -222 452 -230 15 -5 96 -29 178 -53 83 -25 227 -68 320 -96
94 -29 208 -63 255 -77 191 -57 183 -51 200 -119 13 -48 25 -69 62 -105 l46
-45 7 -122 7 -123 -46 0 c-39 0 -46 -3 -51 -22 -3 -13 -11 -50 -18 -83 l-12
-60 -45 -7 c-25 -3 -124 -7 -221 -7 -97 -1 -231 -4 -297 -8 l-122 -6 -29 -51
c-38 -68 -122 -145 -196 -181 -55 -27 -69 -30 -170 -30 -104 0 -114 2 -176 32
-86 42 -178 138 -210 220 -19 47 -23 77 -24 163 0 116 13 156 83 253 44 62
150 137 193 137 10 0 21 5 24 10 3 6 52 10 110 10 58 0 107 -4 110 -10 3 -5
15 -10 26 -10 40 0 160 -92 210 -162 35 -48 69 -159 69 -222 l0 -59 183 8
c100 4 232 10 292 14 l110 6 3 40 c2 22 8 44 13 49 5 6 9 25 9 42 0 30 3 33
33 36 31 3 32 5 35 49 3 44 0 49 -42 89 -34 32 -47 54 -56 91 -7 30 -17 49
-26 49 -8 0 -22 4 -32 9 -17 9 -37 15 -147 46 -33 9 -69 21 -80 25 -11 4 -38
13 -60 19 -85 22 -221 64 -240 72 -20 9 -86 26 -138 36 -15 3 -30 9 -33 14 -3
5 -14 9 -25 9 -10 0 -27 4 -37 9 -9 5 -44 17 -77 26 -33 10 -71 25 -85 35 -14
9 -75 42 -137 73 -62 31 -143 73 -180 93 -37 20 -142 75 -233 121 -91 47 -169
88 -175 93 -5 4 -63 35 -128 69 l-118 61 -643 0 c-353 0 -646 -4 -651 -8 -6
-5 -32 -17 -60 -27 -27 -10 -72 -28 -100 -40 -27 -12 -66 -28 -85 -35 -19 -7
-39 -17 -44 -22 -6 -4 -18 -8 -28 -8 -9 0 -33 -9 -53 -20 -20 -11 -40 -20 -46
-20 -11 0 -24 -5 -121 -49 -26 -11 -54 -21 -61 -21 -7 0 -22 -7 -33 -15 -10
-8 -27 -15 -36 -15 -10 0 -33 -9 -53 -20 -20 -11 -40 -20 -46 -20 -5 0 -29 -8
-52 -19 -23 -10 -63 -28 -89 -40 -26 -11 -52 -21 -58 -21 -5 0 -18 -4 -28 -9
-9 -5 -29 -14 -44 -20 -16 -6 -38 -15 -50 -21 -13 -5 -40 -16 -62 -24 l-38
-16 -45 44 c-43 43 -45 43 -86 33 -52 -13 -53 -13 -37 -33 16 -19 17 -111 1
-127 -6 -6 -11 -19 -11 -29 0 -10 -4 -26 -9 -36 -5 -9 -17 -46 -26 -82 -10
-36 -21 -74 -25 -85 -25 -66 -30 -103 -30 -207 0 -91 3 -118 15 -128 14 -12
100 -35 173 -47 18 -3 35 -9 38 -14 3 -5 18 -9 33 -9 15 0 31 -4 37 -9 5 -5
25 -11 44 -13 l35 -3 6 55 c8 77 61 183 121 243 30 30 76 61 123 83 66 31 83
34 162 34 183 0 302 -77 388 -250 24 -48 27 -68 29 -156 0 -56 -4 -112 -10
-125 -64 -145 -117 -206 -224 -261 -62 -31 -70 -33 -175 -33 -104 0 -114 2
-177 33 -89 43 -159 113 -200 198 -27 56 -39 69 -63 75 -17 4 -91 23 -165 43
-74 20 -166 44 -205 54 l-70 18 -7 171 -7 172 35 118 c20 65 45 151 56 190
l21 73 -28 72 c-27 68 -27 72 -10 85 11 7 29 13 42 13 12 0 42 4 65 10 139 32
126 32 172 -10 l42 -39 235 95 c128 52 241 98 249 101 36 13 476 191 580 234
l115 47 644 1 643 1 72 -37z m-776 -126 c12 -11 22 -26 22 -32 0 -6 11 -22 25
-35 14 -13 25 -29 25 -36 0 -6 7 -17 15 -24 15 -12 115 -139 145 -185 13 -19
47 -65 132 -178 13 -17 34 -45 48 -61 14 -17 30 -38 35 -48 6 -9 31 -44 58
-77 26 -34 47 -66 47 -71 0 -5 -60 -11 -142 -12 l-143 -3 1 -30 c4 -77 18
-176 25 -181 5 -3 9 -21 9 -41 0 -20 4 -50 9 -67 10 -33 41 -202 41 -223 0
-34 -36 3 -86 89 -6 10 -21 29 -33 42 -11 12 -21 27 -21 33 0 6 -4 13 -8 15
-7 3 -41 48 -127 168 -11 15 -51 71 -90 125 -38 53 -80 111 -93 128 -12 18
-32 46 -45 63 -72 100 -107 154 -107 163 0 7 50 11 146 11 l146 0 -6 33 c-3
17 -10 61 -15 97 -6 36 -13 83 -16 105 -4 22 -9 60 -11 85 -3 25 -9 54 -14 65
-13 29 -17 114 -5 108 6 -3 20 -15 33 -26z"/>
<path d="M3530 2894 c-131 -48 -210 -160 -210 -298 0 -122 67 -228 178 -283
74 -37 190 -39 264 -6 118 54 197 187 185 315 -10 110 -76 206 -179 259 -57
30 -175 36 -238 13z"/>
<path d="M6437 2893 c-62 -21 -141 -92 -175 -157 -23 -44 -26 -63 -26 -141 0
-74 4 -98 22 -133 35 -66 88 -119 150 -149 75 -37 192 -39 263 -7 67 31 124
87 156 152 23 48 27 70 27 142 0 69 -4 93 -23 130 -32 62 -86 117 -146 148
-65 33 -177 40 -248 15z"/>
<path d="M5021 3388 c20 -118 25 -168 19 -177 -3 -6 -51 -12 -107 -13 l-101
-3 116 -164 c73 -101 118 -157 120 -147 2 10 -4 59 -13 111 -10 52 -15 101
-12 109 5 12 29 16 110 18 l104 3 -104 140 c-57 77 -112 148 -122 158 -18 18
-18 17 -10 -35z"/>
</g>
</svg>
