<?xml version="1.0" encoding="iso-8859-1"?>
<!-- Generator: Adobe Illustrator 16.0.0, SVG Export Plug-In . SVG Version: 6.00 Build 0)  -->
<!DOCTYPE svg PUBLIC "-//W3C//DTD SVG 1.1//EN" "http://www.w3.org/Graphics/SVG/1.1/DTD/svg11.dtd">
<svg version="1.1" id="Capa_1" xmlns="http://www.w3.org/2000/svg" xmlns:xlink="http://www.w3.org/1999/xlink" x="0px" y="0px"
	 width="412.123px" height="412.122px" viewBox="0 0 412.123 412.122" style="enable-background:new 0 0 412.123 412.122;"
	 xml:space="preserve">
<g>
	<path d="M206.061,0C92.441,0,0,92.436,0,206.062C0,319.69,92.441,412.122,206.061,412.122
		c113.616,0,206.062-92.432,206.062-206.061C412.123,92.436,319.677,0,206.061,0z M54.474,206.062
		c0-83.587,68-151.588,151.587-151.588c32.816,0,63.21,10.513,88.047,28.307L82.78,294.108
		C64.992,269.271,54.474,238.878,54.474,206.062z M206.061,357.649c-31.129,0-60.083-9.446-84.187-25.594l210.181-210.182
		c16.147,24.096,25.593,53.064,25.593,84.188C357.648,289.651,289.651,357.649,206.061,357.649z"/>
</g>
<g>
</g>
<g>
</g>
<g>
</g>
<g>
</g>
<g>
</g>
<g>
</g>
<g>
</g>
<g>
</g>
<g>
</g>
<g>
</g>
<g>
</g>
<g>
</g>
<g>
</g>
<g>
</g>
<g>
</g>
</svg>
