<?xml version="1.0" encoding="UTF-8" standalone="no"?>
<svg
   xmlns:dc="http://purl.org/dc/elements/1.1/"
   xmlns:cc="http://creativecommons.org/ns#"
   xmlns:rdf="http://www.w3.org/1999/02/22-rdf-syntax-ns#"
   xmlns:svg="http://www.w3.org/2000/svg"
   xmlns="http://www.w3.org/2000/svg"
   xmlns:sodipodi="http://sodipodi.sourceforge.net/DTD/sodipodi-0.dtd"
   xmlns:inkscape="http://www.inkscape.org/namespaces/inkscape"
   version="1.1"
   id="svg2"
   viewBox="0 0 744.09448819 1052.3622047"
   height="297mm"
   width="210mm"
   inkscape:version="0.91 r13725"
   sodipodi:docname="type 2 mennekes.svg"
   inkscape:export-filename="/Users/sss/Desktop/EV Plugs/type 2 mennekes.png"
   inkscape:export-xdpi="600"
   inkscape:export-ydpi="600">
  <sodipodi:namedview
     pagecolor="#ffffff"
     bordercolor="#666666"
     borderopacity="1"
     objecttolerance="10"
     gridtolerance="10"
     guidetolerance="10"
     inkscape:pageopacity="0"
     inkscape:pageshadow="2"
     inkscape:window-width="1024"
     inkscape:window-height="879"
     id="namedview18"
     showgrid="true"
     inkscape:zoom="0.63429568"
     inkscape:cx="401.7175"
     inkscape:cy="484.74722"
     inkscape:window-x="68"
     inkscape:window-y="64"
     inkscape:window-maximized="0"
     inkscape:current-layer="layer1">
    <inkscape:grid
       type="xygrid"
       id="grid4146" />
  </sodipodi:namedview>
  <defs
     id="defs4" />
  <metadata
     id="metadata7">
    <rdf:RDF>
      <cc:Work
         rdf:about="">
        <dc:format>image/svg+xml</dc:format>
        <dc:type
           rdf:resource="http://purl.org/dc/dcmitype/StillImage" />
        <dc:title />
      </cc:Work>
    </rdf:RDF>
  </metadata>
  <g
     id="layer1">
    <ellipse
       ry="32.689156"
       rx="33.477383"
       cy="566.02692"
       cx="422.49423"
       id="ellipse4206"
       style="fill:none;fill-opacity:1;fill-rule:evenodd;stroke:#000000;stroke-width:23;stroke-linecap:butt;stroke-linejoin:miter;stroke-miterlimit:4;stroke-dasharray:none;stroke-dashoffset:0;stroke-opacity:1" />
    <ellipse
       style="fill:none;fill-opacity:1;fill-rule:evenodd;stroke:#000000;stroke-width:23;stroke-linecap:butt;stroke-linejoin:miter;stroke-miterlimit:4;stroke-dasharray:none;stroke-dashoffset:0;stroke-opacity:1"
       id="ellipse4208"
       cx="315.29419"
       cy="566.02692"
       rx="33.477383"
       ry="32.689156" />
    <ellipse
       ry="32.689156"
       rx="33.477383"
       cy="477.74448"
       cx="264.84711"
       id="ellipse4210"
       style="fill:none;fill-opacity:1;fill-rule:evenodd;stroke:#000000;stroke-width:23;stroke-linecap:butt;stroke-linejoin:miter;stroke-miterlimit:4;stroke-dasharray:none;stroke-dashoffset:0;stroke-opacity:1" />
    <ellipse
       style="fill:none;fill-opacity:1;fill-rule:evenodd;stroke:#000000;stroke-width:23;stroke-linecap:butt;stroke-linejoin:miter;stroke-miterlimit:4;stroke-dasharray:none;stroke-dashoffset:0;stroke-opacity:1"
       id="ellipse4212"
       cx="368.89423"
       cy="477.74448"
       rx="33.477383"
       ry="32.689156" />
    <ellipse
       ry="32.689156"
       rx="33.477383"
       cy="477.74448"
       cx="471.36487"
       id="ellipse4214"
       style="fill:none;fill-opacity:1;fill-rule:evenodd;stroke:#000000;stroke-width:23;stroke-linecap:butt;stroke-linejoin:miter;stroke-miterlimit:4;stroke-dasharray:none;stroke-dashoffset:0;stroke-opacity:1" />
    <ellipse
       style="fill:none;fill-opacity:1;fill-rule:evenodd;stroke:#000000;stroke-width:23;stroke-linecap:butt;stroke-linejoin:miter;stroke-miterlimit:4;stroke-dasharray:none;stroke-dashoffset:0;stroke-opacity:1"
       id="ellipse4216"
       cx="421.70602"
       cy="406.01505"
       rx="24.440186"
       ry="25.228432" />
    <ellipse
       ry="25.228432"
       rx="24.440186"
       cy="406.01505"
       cx="319.23538"
       id="ellipse4218"
       style="fill:none;fill-opacity:1;fill-rule:evenodd;stroke:#000000;stroke-width:23;stroke-linecap:butt;stroke-linejoin:miter;stroke-miterlimit:4;stroke-dasharray:none;stroke-dashoffset:0;stroke-opacity:1" />
    <path
       id="path4231"
       d="m 263.27056,331.9209 214.40011,0 c 0,0 22.48143,15.20157 31.95271,25.64682 9.47129,10.44526 18.49346,24.48925 24.80002,35.83524 6.30656,11.34599 11.41582,21.50855 15.76495,34.6827 4.34913,13.17415 8.33496,26.90043 9.45883,44.14119 1.12387,17.24076 -0.50993,40.83133 -4.72941,58.32944 -4.21948,17.4981 -12.05744,33.4219 -18.91765,45.71768 -6.86021,12.29577 -11.88517,18.52633 -20.49414,28.37648 -8.60897,9.85015 -19.92154,20.95923 -31.52943,29.95295 -11.60789,8.99371 -23.82267,17.22465 -37.8353,23.64707 -14.01263,6.42242 -45.71768,14.18825 -45.71768,14.18825 0,0 -42.93148,5.75825 -77.2471,-6.30588 -13.63978,-4.79525 -22.57777,-6.42989 -37.83531,-14.18825 -19.11323,-9.71895 -37.52194,-22.04048 -52.02356,-37.83531 -19.93057,-21.70791 -35.90374,-47.88308 -45.71767,-75.67063 -7.77117,-22.00358 -10.31615,-46.04493 -9.45882,-69.36474 0.65128,-17.71506 4.79457,-35.43136 11.03529,-52.02355 5.30073,-14.09303 14.29531,-27.64889 22.07061,-39.41179 7.60607,-11.50687 20.999,-24.12154 29.95295,-31.52942 8.95395,-7.40788 22.0706,-14.18825 22.0706,-14.18825 z"
       style="fill:none;fill-rule:evenodd;stroke:#000000;stroke-width:40;stroke-linecap:butt;stroke-linejoin:round;stroke-miterlimit:4;stroke-dasharray:none;stroke-opacity:1"
       inkscape:connector-curvature="0"
       sodipodi:nodetypes="ccscccccccccssssssssc" />
  </g>
</svg>
